<svg xmlns="http://www.w3.org/2000/svg" version="1.1" viewBox="0 81.1 558.8 100.1014" aria-label="4H Computers">
	<title>4H Computers Logo</title>
	<path d="m 65.397088,181.08225 c -0.286578,-0.1247 -0.475223,-0.4568 -0.475223,-0.83677 0,-0.21427 0.05532,-0.33024 0.244593,-0.51174 l 0.244592,-0.23463 -0.17852,-0.17578 c -0.15086,-0.14895 -0.172399,-0.22839 -0.139809,-0.51686 0.02647,-0.23329 0.100984,-0.40359 0.236502,-0.53912 0.170442,-0.17023 0.261979,-0.19803 0.654119,-0.19803 0.42344,0 0.472326,0.0178 0.684227,0.25535 0.201991,0.22615 0.223693,0.29478 0.189309,0.59912 -0.02597,0.23088 -0.09321,0.38775 -0.204325,0.47783 -0.144387,0.11717 -0.149894,0.13997 -0.0424,0.18146 0.160557,0.0615 0.343493,0.41966 0.343493,0.6725 0,0.7246 -0.806673,1.15312 -1.556746,0.82687 z m 0.995732,-0.37559 c 0.38923,-0.38926 0.108259,-1.01944 -0.454976,-1.01944 -0.348223,0 -0.639694,0.27433 -0.639694,0.60205 0,0.32778 0.291471,0.60212 0.639694,0.60212 0.186611,0 0.327436,-0.0572 0.454976,-0.1846 z m -0.06498,-1.48412 c 0.346805,-0.32581 0.123313,-0.88997 -0.352625,-0.88997 -0.469101,0 -0.689044,0.53255 -0.363163,0.87944 0.205403,0.21863 0.489812,0.22283 0.715788,0.01 z m 3.116277,1.87564 c -0.141088,-0.0517 -0.327248,-0.18936 -0.413905,-0.30611 -0.143284,-0.1931 -0.159616,-0.33147 -0.181281,-1.52402 l -0.02383,-1.31178 h 0.193097 0.193085 v 1.11767 c 0,1.24742 0.06624,1.54417 0.380687,1.70684 0.440475,0.22778 0.973139,0.0611 1.116309,-0.34988 0.04654,-0.13351 0.08355,-0.73309 0.08355,-1.35696 v -1.11767 h 0.188154 0.188155 v 1.18532 c 0,1.30143 -0.06448,1.55559 -0.467132,1.85091 -0.249597,0.18304 -0.896905,0.23736 -1.256631,0.10588 z m 4.289713,-0.005 c -0.299274,-0.10487 -0.512542,-0.36622 -0.580032,-0.71072 -0.0434,-0.22188 -0.03086,-0.24459 0.134452,-0.24459 0.140298,0 0.204513,0.0612 0.277948,0.26412 0.161774,0.44731 0.700008,0.61094 1.251476,0.3805 0.29265,-0.12243 0.40614,-0.39962 0.27835,-0.68005 -0.07865,-0.1728 -0.317012,-0.27422 -1.157104,-0.49198 -0.58372,-0.15133 -0.808455,-0.47118 -0.70786,-1.00751 0.09885,-0.52754 0.68109,-0.81779 1.378024,-0.68704 0.390912,0.0733 0.53274,0.16216 0.701777,0.43935 0.204763,0.33583 0.190914,0.50319 -0.0414,0.50319 -0.11403,0 -0.188155,-0.0429 -0.188155,-0.10876 0,-0.2206 -0.331915,-0.50179 -0.639844,-0.54208 -0.564966,-0.0739 -0.947548,0.23763 -0.836278,0.68103 0.03951,0.15747 0.125319,0.21271 0.479914,0.30835 1.074022,0.28975 1.104505,0.30322 1.284455,0.56803 0.209644,0.30853 0.193474,0.80741 -0.03475,1.06355 -0.305697,0.34321 -1.033377,0.46344 -1.601053,0.26455 z m 4.316521,-0.008 c -0.705176,-0.30714 -1.015351,-1.60108 -0.595712,-2.48544 0.287055,-0.60487 1.041142,-0.87366 1.721894,-0.61369 0.379909,0.14502 0.447298,0.21112 0.607893,0.5955 l 0.115535,0.27647 h -0.218626 c -0.171219,0 -0.228999,-0.0414 -0.266445,-0.19034 -0.07288,-0.29058 -0.465776,-0.50194 -0.858507,-0.46195 -0.62878,0.064 -0.976764,0.66633 -0.896479,1.55161 0.04817,0.53324 0.228172,0.86468 0.552785,1.01872 0.52446,0.24888 0.964697,0.0685 1.186709,-0.48657 0.0981,-0.24519 0.158236,-0.30244 0.317953,-0.30244 0.177329,0 0.191918,0.0206 0.145177,0.20696 -0.193097,0.77384 -1.080206,1.21014 -1.812227,0.89132 z m 7.785248,-0.0655 c -0.365559,-0.24459 -0.528688,-0.74498 -0.496172,-1.52226 0.02948,-0.70646 0.196032,-1.11866 0.535486,-1.32564 0.468073,-0.28545 1.028222,-0.098 1.291418,0.43247 0.111897,0.22545 0.144387,0.45229 0.144387,1.00607 0,0.55378 -0.03249,0.78061 -0.144387,1.00606 -0.273119,0.55028 -0.849777,0.72504 -1.330732,0.4033 z m 0.831574,-0.27632 c 0.215502,-0.21554 0.326194,-0.72358 0.287833,-1.32103 -0.03914,-0.60949 -0.209167,-0.99438 -0.467959,-1.05931 -0.465752,-0.11691 -0.724181,0.23537 -0.777119,1.05931 -0.05645,0.87712 0.194076,1.46759 0.622545,1.46759 0.103367,0 0.254076,-0.066 0.3347,-0.14643 z m -23.175479,-0.71891 v -1.09126 h -0.338638 c -0.277572,0 -0.338651,-0.0247 -0.338651,-0.1373 0,-0.0958 0.08455,-0.15822 0.282213,-0.20693 0.211174,-0.0522 0.310639,-0.13083 0.395089,-0.3127 0.06347,-0.13649 0.170618,-0.24366 0.24458,-0.2446 0.121305,-9.9e-4 0.131629,0.1213 0.131629,1.54119 v 1.54282 h -0.18818 -0.188142 z m 8.504148,0.86547 c 0,-0.20069 0.02509,-0.22578 0.225763,-0.22578 0.200712,0 0.225788,0.0252 0.225788,0.22578 0,0.2007 -0.02521,0.22578 -0.225788,0.22578 -0.200687,0 -0.225763,-0.0252 -0.225763,-0.22578 z m 4.139204,0 c 0,-0.20069 0.02509,-0.22578 0.225738,-0.22578 0.200699,0 0.225801,0.0252 0.225801,0.22578 0,0.2007 -0.02509,0.22578 -0.225801,0.22578 -0.200674,0 -0.225738,-0.0252 -0.225738,-0.22578 z m 4.44021,0 c 0,-0.20069 0.02509,-0.22578 0.225763,-0.22578 0.200699,0 0.225763,0.0252 0.225763,0.22578 0,0.2007 -0.02521,0.22578 -0.225763,0.22578 -0.200687,0 -0.225763,-0.0252 -0.225763,-0.22578 z m 2.784525,0.0887 c 0,-0.39264 0.520722,-1.62626 0.98261,-2.32792 l 0.160971,-0.24458 h -0.797566 c -0.747439,0 -0.797604,-0.008 -0.797604,-0.15052 0,-0.14298 0.0503,-0.15071 1.015991,-0.15071 0.843315,0 1.015953,0.0178 1.015953,0.11052 0,0.0608 -0.147373,0.34019 -0.327826,0.62089 -0.364969,0.56812 -0.681203,1.31103 -0.806209,1.89401 -0.07175,0.33411 -0.106753,0.38493 -0.264463,0.38493 -0.125683,0 -0.181882,-0.0424 -0.181882,-0.13682 z m 4.816494,0 c 0,-0.39264 0.520759,-1.62626 0.982647,-2.32792 l 0.160959,-0.24458 h -0.797617 c -0.747413,0 -0.797578,-0.008 -0.797578,-0.15052 0,-0.14298 0.05005,-0.15071 1.015965,-0.15071 0.843341,0 1.016004,0.0178 1.016004,0.11052 0,0.0608 -0.147386,0.34019 -0.327863,0.62089 -0.364944,0.56812 -0.681153,1.31103 -0.806184,1.89401 -0.07175,0.33411 -0.106754,0.38493 -0.264476,0.38493 -0.125796,0 -0.181857,-0.0424 -0.181857,-0.13682 z m -37.085485,-0.0324 c -0.0424,-0.0517 -0.313612,-0.58516 -0.602737,-1.18537 -2.525931,-5.24346 -3.982236,-11.63417 -4.613458,-20.24471 -0.14344,-1.95811 -0.0219,-9.68737 0.217717,-13.81008 0.08955,-1.54656 -0.05432,-2.18728 -0.544635,-2.42112 -0.336344,-0.16037 -0.726784,-0.0818 -1.012593,0.20417 -0.305701,0.30569 -0.801201,1.61179 -0.869643,2.29221 -0.294636,2.92979 -0.974494,6.90741 -1.633594,9.55793 -0.895242,3.59996 -2.360381,7.43206 -3.575809,9.35238 -0.138083,0.21814 -0.250974,0.41371 -0.250974,0.43463 0,0.17062 -1.590547,2.42496 -2.280921,3.23282 -1.298212,1.51918 -3.208113,3.13214 -4.680456,3.95276 -1.618321,0.90205 -2.888823,1.44397 -3.830613,1.63397 -0.849196,0.17121 -2.92008,0.16806 -3.883306,-0.006 -2.036157,-0.36809 -3.920158,-1.26337 -5.074145,-2.4112 -1.177438,-1.17119 -2.810309,-3.22042 -5.223936,-6.55608 -1.676092,-2.31637 -2.171685,-2.9782 -2.986979,-3.98877 C 9.7772494,160.40411 9.2985542,159.82744 9.1810751,159.70211 9.0636461,159.57679 8.715445,159.18733 8.4076007,158.83664 7.1068489,157.355 5.5474323,155.9765 4.028385,154.96546 3.4036306,154.54962 2.7880838,153.8932 2.2969809,153.11904 0.2551496,149.9004 -0.4492849,146.23452 0.27957999,142.62035 1.4643179,136.74598 5.9700134,131.83489 11.770786,130.09531 c 2.496272,-0.74855 7.392629,-0.93471 14.46827,-0.55003 1.887751,0.10262 7.608592,0.058 8.785763,-0.0686 1.168391,-0.12569 1.235967,-0.1551 1.571964,-0.68372 0.2319,-0.36499 0.24068,-0.86151 0.02017,-1.14183 -0.200706,-0.25517 -0.879698,-0.59957 -1.503552,-0.76263 -0.683233,-0.1787 -2.269589,-0.12131 -3.154806,0.11428 -0.629024,0.16709 -0.688291,0.16925 -3.548649,0.1213 -7.160365,-0.12017 -11.832245,-0.81797 -15.90554,-2.37523 -2.9752964,-1.13749 -5.3052871,-2.6176 -7.288799,-4.63012 -1.8919297,-1.9196 -2.9449392,-3.8577 -3.4621597,-6.37218 -0.250674,-1.21877 -0.298466,-1.74677 -0.2851776,-3.1488 0.023333,-2.46994 0.5120183,-4.75596 1.3511129,-6.32175 1.1743811,-2.19146 2.6269752,-3.74692 6.2551461,-6.698096 3.1942733,-2.598252 4.1638043,-3.542939 5.3498663,-5.212987 0.965888,-1.360036 2.81381,-3.845927 3.089025,-4.155563 0.110968,-0.125068 0.362478,-0.413265 0.558834,-0.64091 2.321211,-2.690893 4.890934,-4.260824 7.45177,-4.552571 0.248324,-0.02835 0.69228,-0.116789 0.986505,-0.197049 3.322424,-0.903893 7.015664,-0.357304 10.415041,1.541455 0.517412,0.288987 1.177804,0.699806 1.467536,0.912962 0.289734,0.213094 0.645182,0.469315 0.789838,0.569382 0.826971,0.571841 2.733575,2.47139 3.318593,3.306263 0.159407,0.22767 0.38579,0.549374 0.502829,0.714961 0.348874,0.493525 0.973075,1.640192 1.341481,2.464302 1.469379,3.286819 2.151876,7.567011 2.205187,13.829311 0.01781,2.11716 0.152887,6.58121 0.229045,7.58473 0.07657,1.01004 0.146121,1.19201 0.638175,1.66731 0.230533,0.22278 0.327526,0.26225 0.701115,0.28531 0.418885,0.026 0.444313,0.0158 0.751004,-0.27785 0.17459,-0.16747 0.348501,-0.36366 0.386423,-0.43584 0.09584,-0.18264 0.275101,-2.44594 0.424418,-5.36172 0.367604,-7.17781 0.511088,-8.80019 1.045822,-11.826157 0.721897,-4.084887 2.269925,-7.731871 4.313522,-10.162052 0.653995,-0.777658 1.900967,-2.003304 2.580954,-2.536771 2.125789,-1.667765 4.706892,-2.992977 7.036617,-3.612964 3.72693,-0.991692 7.988782,-0.0212 11.326331,2.579085 1.707656,1.330468 3.374555,3.353505 3.877665,4.70624 0.632141,1.699603 1.551502,3.042214 3.098564,4.525161 0.868291,0.832289 2.21365,1.863082 4.46294,3.419452 2.079274,1.438677 3.642693,2.647401 4.569204,3.532506 0.623311,0.59545 0.806887,0.82923 1.194649,1.52115 1.169761,2.08741 1.749982,4.21074 1.796748,6.57497 0.05745,2.91296 -0.553175,5.20864 -2.052291,7.71404 -0.619961,1.03608 -1.832813,2.53487 -2.773461,3.42736 -3.483555,3.3052 -8.807799,5.51622 -14.926625,6.19865 -1.306558,0.14581 -2.087616,0.18345 -4.89176,0.23646 -1.262453,0.0238 -2.447769,0.0563 -2.634055,0.0722 -0.18616,0.0158 -0.711172,0.0482 -1.166474,0.0723 -0.859097,0.0448 -1.030178,0.0582 -2.408241,0.19386 -1.984839,0.19528 -4.060011,0.5522 -4.395639,0.75634 -0.369899,0.22497 -0.637987,0.69912 -0.637987,1.12846 0,0.30554 0.03813,0.4093 0.221435,0.60217 0.392128,0.41278 0.73108,0.53291 1.723738,0.61089 1.403503,0.11014 3.77115,-0.01 7.60393,-0.38981 0.786439,-0.0777 1.683884,-0.16472 1.99431,-0.19328 0.310451,-0.0283 0.615245,-0.0611 0.67734,-0.0723 0.06197,-0.01 0.434616,-0.0426 0.827823,-0.0701 0.393232,-0.0271 0.799623,-0.0635 0.90309,-0.0804 0.738218,-0.1198 3.820926,-0.26201 5.681989,-0.26188 3.574652,2e-4 6.215719,0.40098 8.686393,1.31812 0.929346,0.345 2.519536,1.13233 3.166718,1.56797 1.108394,0.74604 2.412582,1.94297 3.249976,2.9827 0.466844,0.57965 1.454045,2.03885 1.676897,2.47863 0.348286,0.68725 0.800928,1.99629 1.02974,2.97766 0.198805,0.8531 0.233465,1.16826 0.270171,2.46104 0.06536,2.3048 -0.234394,4.12735 -1.080846,6.57007 -1.048908,3.02699 -1.643316,3.85313 -5.631309,7.82696 -1.495466,1.49015 -2.948594,2.9972 -3.229177,3.34904 -1.013494,1.27082 -1.690282,2.42908 -2.156034,3.69006 -0.115158,0.31171 -0.275264,0.68427 -0.355799,0.82781 -0.08054,0.1436 -0.294332,0.53205 -0.475123,0.86316 -0.350443,0.64198 -1.230689,1.91481 -1.795605,2.59649 -1.307174,1.57729 -2.945145,2.92013 -4.626696,3.793 -2.003305,1.03992 -3.853115,1.45787 -6.066979,1.37079 -1.384385,-0.0547 -1.542583,-0.0743 -2.521103,-0.31657 -1.943066,-0.48096 -3.867855,-1.53278 -5.415368,-2.95924 -0.332919,-0.30685 -0.74074,-0.68286 -0.906315,-0.83553 -1.221795,-1.12674 -3.621355,-4.22684 -4.25721,-5.50006 -0.173578,-0.3478 -0.495946,-0.941 -0.716127,-1.31818 -0.826406,-1.41577 -1.997183,-4.73952 -2.80698,-7.96905 -0.658097,-2.62444 -1.212187,-5.62438 -1.591632,-8.61718 -0.09208,-0.72439 -0.210873,-1.42487 -0.264551,-1.55666 -0.106377,-0.26127 -0.369423,-0.42743 -0.800163,-0.50532 -0.240616,-0.0434 -0.31242,-0.0178 -0.548344,0.18818 -0.337548,0.29635 -0.812695,1.28019 -0.941264,1.94895 -0.09408,0.4899 -0.117918,2.35549 -0.03425,2.70932 0.02434,0.10324 0.0562,0.88242 0.0705,1.73098 0.03099,1.85841 0.06134,2.2522 0.343832,4.47793 0.546325,4.30549 1.206115,7.57263 2.295001,11.36413 0.732674,2.55108 1.778194,5.47556 2.663685,7.45067 0.129722,0.28974 0.310388,0.69614 0.401059,0.90311 0.304781,0.69578 1.718482,3.45525 2.139839,4.17691 0.420278,0.71984 0.88667,1.4772 1.401935,2.27659 l 0.278964,0.43271 H 55.67661 c -3.515593,0 -4.525525,-0.0204 -4.585575,-0.0941 z M 21.66182,160.17401 c 0.05485,-0.0517 0.234928,-0.20859 0.400484,-0.34856 0.165476,-0.13982 0.470388,-0.41093 0.677446,-0.60207 0.207076,-0.19131 0.647295,-0.5831 0.978358,-0.87087 0.331032,-0.28779 0.788149,-0.69439 1.015793,-0.90348 0.227662,-0.20911 0.684857,-0.6203 1.015984,-0.91377 0.331158,-0.29345 1.147726,-1.02141 1.814691,-1.6177 1.829228,-1.63545 4.265632,-3.80194 5.783702,-5.14302 1.370912,-1.21097 1.48196,-1.31899 1.450151,-1.4103 -0.01576,-0.0434 -0.476458,-0.56296 -1.977034,-2.22655 l -0.303761,-0.33674 -0.260651,0.21551 c -0.143284,0.11842 -1.003815,0.876 -1.912028,1.6832 -2.429942,2.15968 -3.149176,2.7847 -3.204394,2.7847 -0.05123,0 -0.133194,-0.0873 -1.202534,-1.28054 -0.351822,-0.39258 -0.658184,-0.73076 -0.68079,-0.75147 -0.02284,-0.0206 -0.679402,-0.74587 -1.45956,-1.61158 l -1.418465,-1.57394 0.369113,-0.34514 c 0.320487,-0.29974 1.742422,-1.56501 4.19782,-3.73542 0.376822,-0.33314 0.685172,-0.6442 0.685172,-0.69126 0,-0.0909 -0.793666,-1.02361 -1.714144,-2.01381 l -0.559054,-0.60138 -0.330938,0.27634 c -0.182058,0.15212 -0.418467,0.3549 -0.525464,0.45088 -0.10718,0.096 -0.900883,0.80107 -1.764189,1.56681 -0.86329,0.76576 -2.079584,1.85027 -2.702856,2.40996 -0.623272,0.55971 -1.556579,1.38768 -2.073988,1.83994 -0.517378,0.45221 -0.978327,0.85788 -1.024306,0.90144 -0.20088,0.19032 -0.736447,0.66809 -1.64734,1.4696 -1.625116,1.42992 -3.080309,2.74203 -3.173183,2.86114 -0.07093,0.0908 -0.02128,0.19133 0.261298,0.52688 0.651282,0.7737 1.918207,2.10779 2.001322,2.10745 0.04539,0 0.184408,-0.0938 0.308507,-0.20845 0.124052,-0.11466 1.021626,-0.91442 1.99434,-1.77773 0.97273,-0.86331 2.001907,-1.77706 2.287132,-2.03056 0.745496,-0.66251 0.686038,-0.65263 1.131665,-0.18796 0.76493,0.79741 4.332747,4.76972 4.332747,4.82394 0,0.0299 -1.18201,1.09463 -4.19588,3.77828 -0.878832,0.78254 -1.06007,0.97819 -1.002647,1.08248 0.03862,0.0703 0.398385,0.48286 0.799639,0.9175 0.401256,0.43463 0.884286,0.96804 1.073438,1.18535 0.370566,0.42578 0.403509,0.44371 0.554404,0.30103 z m 54.635564,-1.09781 c 0.179901,-0.20018 0.662901,-0.77972 1.073696,-1.28786 0.597431,-0.739 0.73177,-0.94853 0.671494,-1.04712 -0.0414,-0.0677 -0.599978,-0.54652 -1.241177,-1.06396 -0.641237,-0.51741 -1.788393,-1.44874 -2.549203,-2.06961 -0.760836,-0.62088 -1.435767,-1.16848 -1.499882,-1.21683 -0.102865,-0.0778 -0.09496,-0.11679 0.069,-0.3385 0.101986,-0.13761 0.258617,-0.33537 0.348285,-0.43892 0.08944,-0.10337 0.41467,-0.49307 0.722412,-0.86561 0.444451,-0.53813 3.166655,-3.82224 3.268291,-3.94292 0.01418,-0.0158 0.186386,0.10211 0.384187,0.26326 0.46451,0.37835 0.249397,0.20461 2.821356,2.27834 1.229924,0.99164 2.269423,1.82354 2.310005,1.8486 0.05946,0.0366 0.792347,-0.76745 1.575776,-1.72885 0.559371,-0.68644 0.688855,-0.86083 0.688855,-0.92761 0,-0.0421 -0.184416,-0.22269 -0.409841,-0.40124 -0.527972,-0.41823 -4.976009,-4.01162 -5.916307,-4.77956 -0.395691,-0.32313 -1.157705,-0.94066 -1.693292,-1.37233 -0.535625,-0.43162 -1.078061,-0.87189 -1.205388,-0.97832 -0.127351,-0.10675 -0.363677,-0.29521 -0.525137,-0.41939 -0.161372,-0.12444 -0.412915,-0.32806 -0.558681,-0.45305 -0.26504,-0.22728 -0.476679,-0.39936 -2.444219,-1.98705 l -1.050237,-0.84749 -0.229125,0.26134 c -0.125934,0.14376 -0.483126,0.57268 -0.793552,0.95316 -0.310451,0.38047 -0.7084,0.86506 -0.884298,1.0769 -0.175749,0.21184 -0.319847,0.40525 -0.319847,0.42978 0,0.0247 0.664368,0.58542 1.476423,1.24629 1.599862,1.30205 2.105354,1.71403 3.216859,2.62169 0.398902,0.32573 0.725284,0.63208 0.725284,0.68083 0,0.072 -1.876868,2.38531 -2.69576,3.32287 -0.110893,0.12708 -0.538234,0.6435 -0.94958,1.14772 -0.411346,0.50424 -0.789224,0.91679 -0.839741,0.91679 -0.0838,0 -0.670641,-0.46086 -3.003062,-2.3593 -1.640832,-1.3355 -2.457403,-1.96809 -2.540435,-1.96809 -0.118169,0 -2.247583,2.59608 -2.196716,2.67836 0.02283,0.037 1.059934,0.88875 2.304686,1.89287 1.244777,1.00421 3.046342,2.46651 4.003511,3.24956 0.957157,0.78309 2.129753,1.73732 2.605754,2.1205 1.767167,1.42264 3.774988,3.04762 4.265151,3.4519 0.277936,0.22929 0.546463,0.41687 0.596641,0.41687 0.05018,0 0.238333,-0.16372 0.418095,-0.36402 z m -47.81944,-43.42609 0.426965,-0.47802 -0.488675,-0.46274 c -0.453349,-0.4293 -1.129726,-1.04924 -3.04251,-2.78877 -1.198215,-1.08971 -1.618164,-1.49331 -1.618164,-1.55524 0,-0.062 1.296007,-1.47073 4.529009,-4.92312 l 0.281048,-0.30013 0.247821,0.23063 c 0.136347,0.1267 0.654198,0.59875 1.150895,1.04868 1.248609,1.131 2.391055,2.17193 2.972051,2.70793 0.2694,0.24857 0.578915,0.53006 0.68782,0.62558 l 0.198041,0.17362 0.178324,-0.17399 c 0.694251,-0.67772 2.172601,-2.32456 2.172601,-2.42022 0,-0.0645 -0.04682,-0.14408 -0.103718,-0.17733 -0.103717,-0.0601 -1.192919,-1.04641 -2.19142,-1.98448 -0.28975,-0.27219 -1.102536,-1.01543 -1.806197,-1.65161 -0.703663,-0.6362 -1.651896,-1.50082 -2.107217,-1.92139 -1.029461,-0.9509 -2.573902,-2.363784 -3.451551,-3.157549 -0.366151,-0.331125 -0.740278,-0.669813 -0.831418,-0.752607 -0.09095,-0.08267 -0.483883,-0.438367 -0.872842,-0.790202 -0.388944,-0.351836 -0.919594,-0.834447 -1.179189,-1.072441 -0.259611,-0.237982 -0.500622,-0.432735 -0.535554,-0.432735 -0.035,0 -0.40264,0.364091 -0.817104,0.809007 -0.414496,0.444978 -0.927648,0.99533 -1.14035,1.222987 -0.212701,0.227645 -0.387714,0.451413 -0.388897,0.497276 -0.0012,0.04591 0.276116,0.333721 0.616211,0.639694 1.926607,1.73335 4.464712,4.09761 4.484762,4.17758 0.0126,0.0509 -0.258144,0.39239 -0.602055,0.75851 -0.343926,0.36616 -1.031714,1.10421 -1.52841,1.64019 -0.496715,0.53596 -1.142417,1.22951 -1.434893,1.54124 -0.292491,0.31179 -0.688325,0.73615 -0.879682,0.94313 l -0.347819,0.37632 -0.249209,-0.23092 c -0.479217,-0.44399 -2.214481,-2.03267 -2.953813,-2.70422 -0.410098,-0.37252 -0.934521,-0.85256 -1.165381,-1.06679 -0.582651,-0.54059 -0.862724,-0.77688 -0.921029,-0.77697 -0.02727,-4e-5 -0.141549,0.11001 -0.253936,0.24453 -0.112386,0.13445 -0.614839,0.67976 -1.116754,1.21166 -0.501898,0.53185 -0.922794,1.01086 -0.935356,1.06442 -0.01259,0.0536 0.783324,0.83397 1.76857,1.73424 0.985216,0.90028 1.943758,1.77793 2.13001,1.95032 0.186189,0.17242 1.117588,1.01986 2.069606,1.88321 0.952002,0.86335 1.935231,1.75885 2.18499,1.98996 0.249761,0.23117 0.640091,0.58956 0.867404,0.79653 0.227328,0.20697 0.615721,0.56256 0.863038,0.79024 0.247394,0.22764 0.803974,0.73564 1.236944,1.12888 0.432953,0.39323 1.039769,0.95067 1.348465,1.23876 l 0.561261,0.52382 0.780314,-0.82488 c 0.429203,-0.45364 0.972463,-1.03992 1.207296,-1.30281 z m 42.012772,-1.13818 c 0.517385,-0.47588 1.262465,-1.17038 1.655659,-1.54335 0.657482,-0.62367 1.983698,-1.86635 3.493829,-3.27378 0.333093,-0.31044 0.860113,-0.80393 1.171141,-1.09661 0.311003,-0.29271 1.462725,-1.37647 2.559351,-2.40833 1.096627,-1.03186 2.19363,-2.06517 2.437783,-2.29637 0.336117,-0.31817 0.427567,-0.4483 0.376736,-0.53565 -0.03701,-0.0633 -0.579003,-0.64675 -1.204559,-1.29618 l -1.137421,-1.18077 -0.932194,0.89261 c -0.512693,0.49094 -1.186157,1.12621 -1.496582,1.41168 -0.310464,0.28553 -0.801505,0.7468 -1.091271,1.02506 -1.193683,1.14651 -1.586564,1.49132 -1.701697,1.49351 -0.06674,9.7e-4 -0.30379,-0.19823 -0.526806,-0.44338 -0.223066,-0.24515 -0.778022,-0.82962 -1.233336,-1.29883 -1.333592,-1.37439 -3.083837,-3.22847 -3.106555,-3.29083 -0.02045,-0.0558 0.708801,-0.758698 3.558106,-3.430436 0.745042,-0.698628 1.400354,-1.333856 1.456177,-1.411569 0.111395,-0.154774 0.249372,0.01267 -1.492744,-1.806644 -0.386546,-0.403582 -0.756571,-0.732862 -0.822291,-0.731695 -0.06586,9.91e-4 -0.356565,0.227331 -0.646305,0.50267 -0.826531,0.785423 -2.788389,2.635133 -3.57474,3.37029 -0.393232,0.367679 -1.324585,1.245454 -2.069628,1.950643 -0.745029,0.705163 -1.572062,1.486261 -1.837842,1.735791 -0.265793,0.24951 -0.824575,0.7776 -1.241742,1.1735 -0.417192,0.39593 -1.007159,0.95041 -1.310987,1.23217 -0.630548,0.58473 -0.727454,0.67653 -1.618929,1.5334 -0.357957,0.34409 -0.649955,0.64887 -0.648901,0.67731 0.0013,0.0587 0.668596,0.77767 1.670826,1.80232 l 0.681667,0.69692 0.233867,-0.18304 c 0.128468,-0.10073 0.422009,-0.36347 0.651849,-0.58401 0.229878,-0.22055 0.939758,-0.89202 1.577545,-1.49225 0.637812,-0.60019 1.509943,-1.42146 1.938124,-1.82502 0.428168,-0.40359 0.804365,-0.7338 0.835952,-0.7338 0.03149,0 0.712401,0.68582 1.51284,1.52402 0.800439,0.83818 1.797111,1.87983 2.214855,2.31474 0.417694,0.43494 0.856575,0.89815 0.975309,1.02939 l 0.215815,0.23859 -0.180854,0.17477 c -0.09948,0.0962 -0.67054,0.63199 -1.269063,1.19078 -2.328307,2.17375 -3.685458,3.47558 -3.685458,3.53522 0,0.062 0.374278,0.46467 1.453116,1.56388 0.888024,0.90481 0.908008,0.9197 1.061791,0.79036 0.08631,-0.0725 0.580082,-0.52121 1.097454,-0.99705 z" />
	<path d="m 104.41415,131.51928 q 0,-8.47252 3.90401,-15.20071 3.98707,-6.72818 10.71525,-10.46606 6.81125,-3.82095 14.86846,-3.82095 9.22011,0 16.36361,4.56852 7.22657,4.48546 10.46606,12.79186 h -11.37976 q -2.24273,-4.56852 -6.2298,-6.81125 -3.98708,-2.24273 -9.22011,-2.24273 -5.73141,0 -10.21687,2.57499 -4.48546,2.57498 -7.06044,7.39269 -2.49192,4.81772 -2.49192,11.21364 0,6.39593 2.49192,11.21364 2.57498,4.81772 7.06044,7.47576 4.48546,2.57499 10.21687,2.57499 5.23303,0 9.22011,-2.24273 3.98707,-2.24273 6.2298,-6.81125 h 11.37976 q -3.23949,8.3064 -10.46606,12.79186 -7.1435,4.48546 -16.36361,4.48546 -8.14027,0 -14.86846,-3.73788 -6.72818,-3.82095 -10.71525,-10.54913 -3.90401,-6.72819 -3.90401,-15.20072 z" />
	<path d="m 193.14208,161.09007 q -8.05721,0 -14.86845,-3.73788 -6.72819,-3.82095 -10.71526,-10.54913 -3.90401,-6.81125 -3.90401,-15.28378 0,-8.47252 3.90401,-15.20071 3.98707,-6.72818 10.71526,-10.46606 6.81124,-3.82095 14.86845,-3.82095 8.14028,0 14.86846,3.82095 6.81125,3.73788 10.71526,10.46606 3.904,6.72819 3.904,15.20071 0,8.47253 -3.904,15.28378 -3.90401,6.72818 -10.71526,10.54913 -6.72818,3.73788 -14.86846,3.73788 z m 0,-8.22334 q 5.73142,0 10.21688,-2.57498 4.48545,-2.65805 6.97737,-7.47576 2.57499,-4.90078 2.57499,-11.29671 0,-6.39592 -2.57499,-11.21364 -2.49192,-4.81771 -6.97737,-7.39269 -4.48546,-2.57499 -10.21688,-2.57499 -5.73141,0 -10.21687,2.57499 -4.48546,2.57498 -7.06044,7.39269 -2.49192,4.81772 -2.49192,11.21364 0,6.39593 2.49192,11.29671 2.57498,4.81771 7.06044,7.47576 4.48546,2.57498 10.21687,2.57498 z" />
	<path d="m 287.66503,102.77914 v 57.72948 h -9.4693 v -39.53846 l -17.60957,39.53846 h -6.56205 l -17.69264,-39.53846 v 39.53846 h -9.46929 v -57.72948 h 10.21687 l 20.26762,45.26988 20.18455,-45.26988 z" />
	<path d="m 335.55663,119.97339 q 0,4.40239 -2.0766,8.3064 -2.0766,3.90401 -6.64512,6.39593 -4.56852,2.40885 -11.71202,2.40885 h -10.46607 v 23.42405 h -9.46929 v -57.72948 h 19.93536 q 6.64512,0 11.21364,2.32579 4.65158,2.24273 6.89431,6.14674 2.32579,3.90401 2.32579,8.72172 z m -20.43374,9.38623 q 5.39916,0 8.0572,-2.40886 2.65805,-2.49192 2.65805,-6.97737 0,-9.4693 -10.71525,-9.4693 h -10.46607 v 18.85553 z" />
	<path d="m 349.05064,102.77914 v 36.79735 q 0,6.56206 3.40563,9.88462 3.48868,3.32256 9.63542,3.32256 6.2298,0 9.63542,-3.32256 3.48869,-3.32256 3.48869,-9.88462 v -36.79735 h 9.4693 v 36.63122 q 0,7.06044 -3.07337,11.96122 -3.07337,4.90078 -8.22334,7.30963 -5.14996,2.40886 -11.37976,2.40886 -6.2298,0 -11.37977,-2.40886 -5.06691,-2.40885 -8.05721,-7.30963 -2.99031,-4.90078 -2.99031,-11.96122 v -36.63122 z" />
	<path d="m 429.22429,102.77914 v 7.72495 h -15.36684 v 50.00453 h -9.4693 v -50.00453 h -15.4499 v -7.72495 z" />
	<path d="m 443.27898,110.42103 v 16.94505 h 19.93536 v 7.72496 h -19.93536 v 17.69263 h 22.42728 v 7.72495 h -31.89657 v -57.81254 h 31.89657 v 7.72495 z" />
	<path d="m 502.27001,160.50862 -13.29025,-23.09179 h -7.22656 v 23.09179 h -9.4693 v -57.72948 h 19.93536 q 6.64512,0 11.21364,2.32579 4.65159,2.32579 6.89431,6.2298 2.3258,3.90401 2.3258,8.72172 0,5.64835 -3.32256,10.29994 -3.2395,4.56852 -10.05075,6.2298 l 14.28701,23.92243 z M 481.7532,129.858 h 10.46606 q 5.3161,0 7.97415,-2.65804 2.74111,-2.65805 2.74111,-7.14351 0,-4.48545 -2.65805,-6.97737 -2.65805,-2.57499 -8.05721,-2.57499 H 481.7532 Z" />
	<path d="m 538.86488,161.09007 q -5.81448,0 -10.46606,-1.99354 -4.65159,-2.0766 -7.30963,-5.81448 -2.65805,-3.73788 -2.65805,-8.72172 h 10.13381 q 0.33225,3.73788 2.90724,6.14674 2.65804,2.40885 7.39269,2.40885 4.90078,0 7.64189,-2.32579 2.74111,-2.40885 2.74111,-6.14673 0,-2.90724 -1.74434,-4.73465 -1.66128,-1.82741 -4.23626,-2.82418 -2.49192,-0.99677 -6.97738,-2.15966 -5.64835,-1.49515 -9.22011,-2.99031 -3.48868,-1.57821 -5.9806,-4.81771 -2.49192,-3.23949 -2.49192,-8.63865 0,-4.98384 2.49192,-8.72172 2.49192,-3.73788 6.97737,-5.73142 4.48546,-1.99354 10.383,-1.99354 8.38947,0 13.70556,4.23627 5.39916,4.1532 5.98061,11.46283 h -10.46606 q -0.24919,-3.15643 -2.99031,-5.39916 -2.74111,-2.24273 -7.22656,-2.24273 -4.07014,0 -6.64513,2.0766 -2.57498,2.0766 -2.57498,5.98061 0,2.65805 1.57822,4.40239 1.66128,1.66128 4.1532,2.65805 2.49192,0.99677 6.81125,2.15966 5.73141,1.57822 9.30316,3.15644 3.65482,1.57821 6.14674,4.90077 2.57498,3.2395 2.57498,8.72172 0,4.40239 -2.40885,8.3064 -2.32579,3.90401 -6.89431,6.31287 -4.48546,2.32579 -10.6322,2.32579 z" />
</svg>
